<svg xmlns="http://www.w3.org/2000/svg" version="1.1" xmlns:xlink="http://www.w3.org/1999/xlink" xmlns:svgjs="http://svgjs.com/svgjs" width="512" height="512" x="0" y="0" viewBox="0 0 24 24" style="enable-background:new 0 0 512 512" xml:space="preserve" class=""><g transform="matrix(1.1500000000000001,0,0,1.1500000000000001,-1.7999998927116412,-1.8000000715255755)"><g xmlns="http://www.w3.org/2000/svg" id="Layer_49" data-name="Layer 49"><path d="m17 2.06h-10a3.07 3.07 0 0 0 -3 3.13v14.68a2.08 2.08 0 0 0 1.21 1.9 2 2 0 0 0 2.11-.35l4.68-4.26 4.68 4.26a1.94 1.94 0 0 0 1.31.52 2.05 2.05 0 0 0 .8-.17 2.08 2.08 0 0 0 1.21-1.9v-14.68a3.07 3.07 0 0 0 -3-3.13z" fill="#331e00" data-original="#000000"></path></g></g></svg>