<svg xmlns="http://www.w3.org/2000/svg" version="1.1" xmlns:xlink="http://www.w3.org/1999/xlink" xmlns:svgjs="http://svgjs.com/svgjs" width="512" height="512" x="0" y="0" viewBox="0 0 512 512" style="enable-background:new 0 0 512 512" xml:space="preserve"><g><g xmlns="http://www.w3.org/2000/svg" id="_1_Heart" data-name="1 Heart"><path d="m256.1 506a25 25 0 0 1 -17.68-7.35l-.2-.2-197.55-197.45c-54.12-54.13-54.12-142.2 0-196.33s142.2-54.12 196.33 0l19.1 19.1 18.9-18.9a138.83 138.83 0 0 1 196.33 0c54.12 54.13 54.12 142.2 0 196.33l-81.22 81.21a25 25 0 0 1 -35.35-35.41l81.24-81.2a88.82 88.82 0 0 0 -125.64-125.61l-36.58 36.58a25 25 0 0 1 -35.36 0l-36.78-36.77a88.82 88.82 0 0 0 -125.64 125.6l180.1 180.07 19.13-19.13a25 25 0 0 1 35.36 35.35l-36.81 36.82a25 25 0 0 1 -17.68 7.29z" fill="#331e00" data-original="#000000"></path></g></g></svg>